<svg version="1" xmlns="http://www.w3.org/2000/svg" width="346.667" height="346.667" viewBox="0 0 260.000000 260.000000"><path d="M68.7 25.6c-.1.1-4.8.4-10.5.7-5.7.3-10.9 1-11.6 1.6-.7.6-1.5.8-1.8.5-1-1-8.5 7.4-10.5 11.8-1.9 4-2 6.2-1.9 35.3l.1 31L35 110c7.3 10.3 12.6 11.6 46.5 11.2 17.6-.2 24.7-2 29.8-7.6 6.2-6.8 7.9-21.2 4.1-34.2-2.2-7.6-8.1-13.7-15-15.3-4.6-1-20.1-1.9-38-2l-8-.1.6-5.3c.8-6.3 1.7-8.4 3.8-9.2 3-1.1 12-1.7 30.2-1.8l18.5-.2 4.1-8c5.5-10.4 5.8-11.5 3.1-11.5-31.7-.4-45.9-.5-46-.4zm-7.4 48.3c2.6 3.8 4.7 7.4 4.7 8 0 1.2.4 1.2 13 1.3 8.2.1 13.8 1.6 14.1 3.8 1.6 12.3-1.2 14.4-19.3 14.4-10.3 0-12.1-.2-14.5-2-1.5-1.2-3.1-3.2-3.4-4.5-1-3.3-1.1-27.9-.1-27.9.4 0 2.8 3.1 5.5 6.9zM138.5 26.8c-.3.3-.5 4.9-.5 10.3v9.7l27.9.1c27.1 0 31.5.5 33.8 3.2 2.5 3.1 1.6 10.1-1.6 11.8-1 .6-8.8 1.1-17.2 1.2-8.5.1-16.2.4-17.2.8-1.6.6-1.6.9.4 4.6 1.2 2.2 2.5 4.2 3 4.3.5.2.7.8.3 1.3-.3.5 0 .9.5.9.6 0 1.1.5 1.1 1 0 .6.5 1.6 1 2.3.6.7 1.6 2 2.3 3 1 1.5 2.9 1.8 11.3 2 11.5.3 14.8 1.7 15.9 6.7.8 3.6-.9 8.5-3.3 9.6-1 .4-12 .8-24.7.8l-23 .1-4.8 9.7c-2.7 5.4-4.6 10.2-4.3 10.7.4.5 14.4.8 33.8.7 31.5-.1 33.5-.2 37.9-2.2 7.3-3.4 12.5-9.4 13.5-15.6 2.2-13.4-1.3-23-10.4-29.3l-3.4-2.3 3.9-2.1c10-5.7 12.8-19.3 6.5-31.6-3.9-7.5-10.2-10.8-21.7-11.2-20.9-.6-60.5-1-61-.5zM32.8 136.7c-.4.7-.3 17.8.1 19.3 0 .3 13.1.5 29 .4h29l1.9 3.5c2.1 4 2.2 6.6.5 9.5-1.3 2.4-2.5 2.6-14.3 3.1-26.2 1-30.6 1.9-37.7 7.9-2.8 2.3-6.4 8.1-6.9 10.8-.1.5-.3.9-.4 1-.9 1-2 35.9-1.3 38.4.3.7 6 1 17.6.8 9.5-.1 26-.3 36.8-.4 10.8-.1 20.1-.5 20.6-.9 1.6-1 9.7-17.1 8.9-17.8-.6-.6-23.5-1.2-47.8-1.3H56v-4c0-2.2.6-5.6 1.4-7.5 2.4-5.8 4.2-6.3 23.1-6.7 15.8-.4 17.4-.6 22.5-3 10.6-5 14-10.4 14.5-22.7.6-14.2-3.3-22.7-12.7-27.4l-5.3-2.7-33.2-.5c-18.2-.3-33.3-.2-33.5.2zM156.5 137.1c-8.6.5-12.8 2.2-17 6.7-4 4.2-5.4 7.4-6.1 14.3-1 10.5 1.8 17 9.4 21.4 3 1.8 4.2 3.5 2.4 3.5-1.5 0-9 7.6-10.6 10.8-2.1 4.1-2.8 14.1-1.5 20.3.7 3.1 2.3 6 4.9 8.8 2.2 2.4 4 4 4 3.6 0-.3.7.1 1.6.9.8.9 2.3 1.6 3.3 1.6s2.1.3 2.5.7c1.9 1.9 58.2 2.2 60.4.3.1-.2.5-.3 1-.5 5-1.4 6.2-1.8 6.2-2.5 0-.4.8-1 1.9-1.3 2-.5 6.9-8 7.7-11.9.6-2.8.6-12.5 0-15.5-1-4.8-4.4-9.6-10.2-14.3-2.1-1.7-2.5-2.4-1.5-2.8 2.3-.8 9.2-8.4 10.6-11.7 1.8-4.1 1.3-14.2-1-18.8-2.4-5.1-8.6-11.3-12.7-12.6-3.6-1.2-42.5-1.9-55.3-1zm41.6 19.8c2.6.6 4.9 4.2 4.9 7.8 0 7.6-.3 7.8-22.2 7.9-10.6.1-20.1-.3-21.1-.8-.9-.5-2.4-2.5-3.2-4.5-1.6-3.9-1.3-4.9 3.2-8.8 2.2-2 3.5-2.1 20.1-1.9 9.7.1 18 .2 18.3.3zm0 37.5c4.8 2.3 5.1 12.8.5 14.6-3.3 1.2-20.3 1.8-29.9 1-9.2-.8-11-2.1-11-7.9 0-4.3 1.5-6.8 4.8-8.2 3.1-1.3 32.8-.9 35.6.5z"/></svg>