<!DOCTYPE svg PUBLIC "-//W3C//DTD SVG 1.1//EN" "http://www.w3.org/Graphics/SVG/1.1/DTD/svg11.dtd">
<!-- Uploaded to: SVG Repo, www.svgrepo.com, Transformed by: SVG Repo Mixer Tools -->
<svg fill="#ffffff" height="800px" width="800px" version="1.1" id="Layer_1" xmlns="http://www.w3.org/2000/svg" xmlns:xlink="http://www.w3.org/1999/xlink" viewBox="0 0 512.00 512.00" xml:space="preserve" stroke="#ffffff" stroke-width="1.5360029999999998">
<g id="SVGRepo_bgCarrier" stroke-width="0"/>
<g id="SVGRepo_tracerCarrier" stroke-linecap="round" stroke-linejoin="round" stroke="#CCCCCC" stroke-width="1.0240019999999999"/>
<g id="SVGRepo_iconCarrier"> <g> <g> <path d="M487.04,335.85c0-12.964-10.546-23.511-23.51-23.511h-75.338c-17.048,0-30.917,13.869-30.917,30.917v50.231l-16.734,0.06 h-0.103c-10.283,0-19.828-5.536-24.927-14.465l-18.745-32.828c-3.802-6.659-8.98-12.098-15.069-16.084V53.583h9.47 c2.341,5.745,7.98,9.81,14.556,9.81h88.892c8.667,0,15.718-7.05,15.718-15.716V15.716C410.332,7.05,403.281,0,394.616,0h-88.892 c-6.577,0-12.216,4.065-14.556,9.811h-70.333C218.494,4.065,212.856,0,206.278,0h-88.893c-8.666,0-15.717,7.05-15.717,15.716 v31.962c0,8.666,7.05,15.716,15.717,15.716h88.893c6.576,0,12.214-4.065,14.555-9.81h9.471v276.583 c-6.09,3.987-11.268,9.427-15.07,16.085l-19.088,33.427c-5.077,8.89-14.591,14.437-24.829,14.474l-16.592,0.06v-50.958 c0-17.047-13.869-30.917-30.917-30.917H48.472c-12.964,0-23.511,10.547-23.511,23.511s10.547,23.511,23.511,23.511h0.556 c-1.761,3.655-2.75,7.751-2.75,12.072v112.667C46.278,499.484,58.794,512,74.18,512h25.956c15.385,0,27.903-12.516,27.903-27.901 v-22.932l255.929-0.919V484.1c0,15.384,12.515,27.901,27.9,27.901h25.957c15.385,0,27.902-12.516,27.902-27.901V371.433 c0-4.322-0.988-8.418-2.749-12.072h0.554C476.493,359.361,487.04,348.814,487.04,335.85z M305.835,15.829h88.669v31.735h-88.669 V15.829z M206.167,47.564h-88.668V15.829h88.668V47.564z M221.995,37.756v-0.001V25.639h68.011v12.116H221.995z M100.134,496.171 H74.179c-6.656,0-12.073-5.416-12.073-12.072v-5.169l5.031-5.616l14.124,15.766c1.502,1.677,3.645,2.634,5.895,2.634 c2.25,0,4.394-0.957,5.895-2.634l14.124-15.766l5.031,5.616v5.169h0.002C112.209,490.757,106.792,496.171,100.134,496.171z M67.138,383.594l14.124,15.766c1.502,1.677,3.645,2.634,5.895,2.634s4.394-0.957,5.895-2.634l14.124-15.766l5.031,5.616v21.286 c-1.409-1.162-3.18-1.818-5.03-1.818c-2.25,0-4.394,0.957-5.895,2.634l-14.126,15.768l-14.124-15.766 c-1.502-1.677-3.645-2.634-5.895-2.634c-1.85,0-3.623,0.656-5.031,1.819v-21.287L67.138,383.594z M64.468,364.291 c2.201-2.983,5.728-4.93,9.71-4.93h25.956c3.984,0,7.511,1.947,9.711,4.93c-0.848-0.305-1.749-0.473-2.669-0.473 c-2.25,0-4.394,0.957-5.895,2.634l-14.125,15.766l-14.124-15.766c-1.502-1.677-3.645-2.634-5.895-2.634 C66.217,363.818,65.317,363.986,64.468,364.291z M67.138,428.454l14.124,15.766c1.502,1.677,3.645,2.634,5.895,2.634 s4.394-0.957,5.895-2.634l14.124-15.766l5.031,5.616v21.287c-1.409-1.162-3.18-1.818-5.03-1.818c-2.25,0-4.394,0.957-5.895,2.634 l-14.125,15.766l-14.125-15.766c-1.502-1.677-3.645-2.634-5.895-2.634c-1.85,0-3.623,0.656-5.031,1.819V434.07L67.138,428.454z M100.134,343.532H48.472c-4.236,0-7.682-3.446-7.682-7.682c0-4.237,3.446-7.682,7.682-7.682h75.338 c8.32,0,15.088,6.768,15.088,15.088v51.015l-10.861,0.039v-22.876C128.037,356.048,115.52,343.532,100.134,343.532z M128.036,445.338v-35.2l43.338-0.156c15.883-0.058,30.641-8.661,38.518-22.453l19.087-33.427 c4.258-7.456,11.107-12.625,19.106-14.686v105.492h0.001L128.036,445.338z M246.133,323.614V53.583h19.736v270.031 c-3.194-0.67-6.493-1.03-9.869-1.03C252.625,322.584,249.326,322.944,246.133,323.614z M263.915,444.849V339.416 c8,2.06,14.848,7.228,19.106,14.684l18.745,32.828c7.911,13.856,22.717,22.446,38.672,22.446h0.159l43.367-0.154v35.2h0.001 L263.915,444.849z M404.825,383.593l14.124,15.766c1.501,1.677,3.645,2.634,5.895,2.634c2.25,0,4.394-0.957,5.895-2.634 l14.125-15.766l5.031,5.617v21.287c-1.408-1.164-3.182-1.82-5.031-1.82c-2.25,0-4.393,0.957-5.895,2.634l-14.125,15.766 l-14.125-15.766c-1.501-1.677-3.645-2.634-5.895-2.634c-1.85,0-3.624,0.656-5.031,1.819v-21.289L404.825,383.593z M402.156,364.291c2.2-2.983,5.728-4.93,9.709-4.93h25.957c3.982,0,7.511,1.947,9.711,4.93c-0.849-0.305-1.749-0.473-2.67-0.473 c-2.25,0-4.394,0.957-5.895,2.634l-14.125,15.766l-14.124-15.766c-1.501-1.677-3.645-2.634-5.895-2.634 C403.904,363.818,403.005,363.986,402.156,364.291z M404.825,428.454l14.124,15.766c1.501,1.677,3.645,2.634,5.895,2.634 c2.25,0,4.394-0.957,5.895-2.634l14.125-15.766l5.031,5.616v21.289c-1.408-1.163-3.182-1.82-5.031-1.82 c-2.25,0-4.393,0.957-5.895,2.634l-14.125,15.766l-14.125-15.766c-1.501-1.677-3.645-2.634-5.895-2.634 c-1.85,0-3.624,0.656-5.031,1.819v-21.289L404.825,428.454z M449.897,484.099h-0.001c0,6.658-5.417,12.072-12.073,12.072h-25.957 c-6.656,0-12.071-5.416-12.071-12.072v-5.17l5.031-5.615l14.125,15.766c1.501,1.677,3.645,2.634,5.895,2.634 s4.394-0.957,5.895-2.634l14.125-15.766l5.031,5.616V484.099z M411.866,343.531v0.001c-15.384,0-27.9,12.516-27.9,27.901v21.956 l-10.862,0.039v-50.174c0-8.32,6.768-15.088,15.088-15.088h75.338c4.236,0,7.681,3.446,7.681,7.682 c0,4.237-3.446,7.682-7.681,7.682H411.866z"/> </g> </g> </g>
</svg>